<svg width="450" height="407" xmlns="http://www.w3.org/2000/svg" xmlns:xlink="http://www.w3.org/1999/xlink" xml:space="preserve" overflow="hidden"><defs><clipPath id="clip0"><rect x="245" y="1034" width="450" height="407"/></clipPath></defs><g clip-path="url(#clip0)" transform="translate(-245 -1034)"><path d="M334.253 1048.03C340.371 1048.34 346.301 1051.03 349.95 1056 352.291 1059.2 359.142 1073.94 384.78 1130.98 399.849 1164.5 447.833 1271.68 466.019 1312.45 507.705 1405.87 505.572 1400.63 504.643 1407.44 503.574 1415.24 499.288 1420.82 491.468 1424.58L486.84 1426.8 431.696 1426.98C401.37 1427.07 375.419 1426.85 374.031 1426.49 367.608 1424.82 361.692 1419.54 358.64 1412.76 351.685 1397.31 281.915 1241.96 273.215 1222.56 259.324 1191.56 258.981 1190.67 259.006 1185.02 259.031 1179.53 257.883 1182.42 276.988 1139.84 311.6 1062.7 313.712 1058.24 317.431 1054.37 321.831 1049.8 328.136 1047.72 334.253 1048.03Z" stroke="#28666E" stroke-width="27.5" stroke-linecap="round" stroke-linejoin="round" stroke-miterlimit="10" fill="#28666E" fill-rule="evenodd"/><path d="M541.927 1048C566.346 1047.99 567.315 1048.33 570.047 1049.65 572.068 1050.64 575.147 1053.07 576.89 1055.07 579.82 1058.42 603.372 1110.08 673.923 1267.93 684.432 1291.44 685.683 1284.64 660.55 1340.56 634.709 1398.05 628.376 1411.83 625.619 1416.55 620.883 1424.65 610.146 1428.86 601.011 1426.21 599.558 1425.78 596.525 1424.2 594.271 1422.7 589.624 1419.58 588.01 1416.7 576.165 1390.39 572.401 1382.03 566.669 1369.29 563.428 1362.1 560.187 1354.9 555.919 1345.39 553.944 1340.98 551.969 1336.57 545.146 1321.37 538.781 1307.2 520.748 1267.06 506.072 1234.29 490.743 1199.94 486.908 1191.35 473.137 1160.51 460.142 1131.42 447.146 1102.32 436.075 1076.88 435.54 1074.89 433.797 1068.4 436.423 1059.05 441.276 1054.45 442.531 1053.27 445.265 1051.4 447.35 1050.32L451.142 1048.34 508.758 1048.1C523.043 1048.05 533.788 1048 541.927 1048Z" stroke="#28666E" stroke-width="27.5" stroke-linecap="round" stroke-linejoin="round" stroke-miterlimit="10" fill="#28666E" fill-rule="evenodd"/></g></svg>